<?xml version="1.0" standalone="no"?>
<!DOCTYPE svg PUBLIC "-//W3C//DTD SVG 20010904//EN"
 "http://www.w3.org/TR/2001/REC-SVG-20010904/DTD/svg10.dtd">
<svg version="1.0" xmlns="http://www.w3.org/2000/svg"
 width="450.000000pt" height="450.000000pt" viewBox="0 0 450.000000 450.000000"
 preserveAspectRatio="xMidYMid meet">
<metadata>
Created by potrace 1.11, written by Peter Selinger 2001-2013
</metadata>
<g transform="translate(0.000000,450.000000) scale(0.100000,-0.100000)"
fill="#000000" stroke="none">
<path d="M0 3753 l0 -748 92 2 c109 1 151 -5 141 -21 -4 -7 -1 -6 9 1 12 11
18 8 33 -20 22 -42 9 -72 -40 -93 -37 -15 -160 -20 -136 -5 10 6 5 11 -18 16
-18 4 -35 4 -38 1 -4 -3 3 -6 15 -6 12 0 22 -4 22 -10 0 -5 -18 -10 -40 -10
l-40 0 0 -1430 0 -1430 548 0 c345 0 542 4 532 10 -12 7 -10 9 7 7 12 0 19 -5
17 -9 -3 -4 90 -8 206 -8 170 0 214 3 226 14 15 15 61 12 78 -5 6 -5 397 -9
1005 -9 982 0 995 0 976 19 -25 24 -58 28 -110 13 -22 -7 -50 -12 -62 -12 -20
0 -21 3 -12 30 17 47 59 74 154 99 48 13 96 32 106 42 18 18 90 28 88 12 -1
-5 -1 -24 0 -44 1 -34 3 -37 39 -42 20 -3 48 -8 62 -12 14 -3 19 -3 13 1 -19
9 -16 20 7 21 11 1 20 -4 20 -10 0 -7 4 -6 10 3 5 9 25 15 50 15 36 0 47 -6
77 -38 19 -21 57 -52 84 -68 50 -29 50 -29 214 -29 l165 0 0 1313 0 1314 -157
6 c-87 4 -186 7 -219 7 -60 0 -62 -1 -67 -29 -4 -19 -15 -32 -37 -41 -41 -17
-91 5 -109 48 -9 21 -22 33 -39 36 -73 14 -323 28 -445 24 -75 -1 -137 0 -137
5 0 4 5 7 10 7 6 0 10 15 10 33 0 17 3 48 6 68 l6 36 60 -18 c115 -34 234 -42
562 -37 293 5 426 -1 534 -27 l22 -5 0 880 0 880 -975 0 c-922 0 -975 -1 -975
-17 -1 -17 -1 -17 -11 0 -9 16 -81 17 -1274 17 l-1265 0 0 -747z m2392 637
c32 -33 61 -60 64 -60 3 0 -2 7 -10 16 -9 8 -16 23 -16 32 1 12 10 7 31 -18
26 -30 32 -33 49 -22 23 14 70 16 70 3 0 -5 15 -12 33 -16 17 -4 70 -29 115
-57 63 -38 94 -51 123 -51 21 0 39 -4 39 -9 0 -5 4 -7 9 -4 5 4 20 2 33 -3
l23 -10 -25 -1 c-23 -1 -23 -2 8 -15 19 -8 51 -28 72 -45 40 -32 50 -36 50
-20 0 6 -7 10 -15 10 -8 0 -15 9 -15 20 0 25 8 25 33 3 15 -13 21 -15 24 -5 9
24 22 11 57 -59 38 -76 44 -122 25 -178 -12 -35 -6 -52 13 -33 15 15 40 15 73
0 18 -8 25 -19 25 -40 0 -15 5 -28 10 -28 15 0 12 -82 -5 -110 -8 -14 -18 -33
-21 -42 -8 -22 -24 -24 -24 -3 0 33 -20 12 -21 -22 l-2 -38 -6 37 c-4 27 -10
35 -19 30 -9 -6 -10 -25 -6 -70 4 -38 11 -59 17 -55 6 4 8 -3 4 -18 -4 -13 -7
-48 -7 -76 0 -41 -3 -53 -16 -53 -33 0 -2 -18 42 -25 26 -3 57 -11 70 -17 33
-15 65 -86 67 -150 2 -63 -20 -148 -39 -148 -13 0 -64 66 -64 82 0 19 19 5 30
-22 15 -37 41 -36 51 0 22 78 -5 195 -49 219 -12 6 -47 11 -79 12 -32 0 -52 3
-45 6 6 2 10 9 6 14 -7 12 -45 11 -64 -1 -13 -9 -13 -11 0 -20 13 -8 12 -10
-4 -10 -16 0 -18 -6 -13 -41 6 -46 65 -171 131 -275 81 -129 99 -235 50 -293
-39 -47 -53 -41 -51 22 2 66 -22 102 -123 179 l-69 53 -1 73 c0 55 -3 72 -14
72 -8 0 -17 15 -20 34 -4 22 -27 57 -66 99 -61 67 -72 84 -44 73 8 -3 12 -2 9
4 -3 6 -13 10 -21 10 -8 0 -14 10 -14 25 0 14 5 25 10 25 6 0 10 23 10 50 0
43 -3 50 -19 50 -11 0 -21 3 -23 8 -4 8 -108 52 -126 52 -6 0 -12 5 -12 10 0
6 -15 10 -34 10 -19 0 -38 -4 -41 -10 -3 -5 -23 -9 -43 -8 l-37 1 33 4 c20 3
32 10 32 19 0 12 -7 14 -30 9 -19 -4 -41 -1 -61 9 -18 9 -38 16 -46 16 -20 0
-16 18 7 25 11 3 20 11 20 17 0 6 -7 7 -17 3 -37 -15 -53 -17 -53 -6 0 6 -10
11 -22 12 -19 1 -16 4 14 17 21 10 38 23 38 30 0 16 -17 16 -22 0 -3 -9 -9 -8
-22 5 -10 9 -14 17 -9 17 4 0 1 5 -7 10 -19 12 -60 13 -60 1 0 -5 -7 -12 -16
-15 -14 -5 -15 -4 -4 9 10 12 10 15 -1 15 -9 0 -5 7 9 18 22 17 22 17 -34 19
-48 1 -55 -1 -49 -15 5 -13 3 -14 -6 -5 -9 9 -19 8 -45 -4 -18 -9 -30 -21 -27
-26 4 -6 -1 -8 -11 -4 -11 5 -15 3 -10 -5 5 -7 2 -9 -8 -5 -9 3 -25 -3 -36
-13 -18 -17 -22 -17 -32 -5 -18 21 -34 19 -68 -10 -30 -25 -45 -24 -35 3 5 12
1 14 -16 9 -17 -4 -25 0 -33 19 -8 17 -18 24 -29 21 -10 -3 -20 0 -22 6 -2 7
-15 2 -33 -12 -29 -23 -29 -23 -32 -2 -2 12 -5 21 -8 21 -2 0 -33 -23 -68 -50
-60 -47 -131 -74 -120 -45 3 7 -4 11 -18 10 -14 -1 -23 -8 -22 -18 1 -10 -4
-13 -15 -10 -9 4 -13 3 -9 -1 4 -5 -4 -19 -18 -33 -13 -13 -24 -28 -24 -33 0
-5 -7 -6 -17 -3 -11 4 -14 3 -9 -5 5 -8 1 -10 -10 -5 -13 5 -15 3 -9 -7 6 -9
4 -11 -5 -5 -9 5 -5 13 14 30 36 31 33 45 -11 44 -31 0 -34 -2 -18 -10 20 -9
20 -9 0 -6 -15 2 -19 9 -19 34 2 42 -23 33 -32 -12 -4 -23 -10 -32 -20 -28
-23 9 -16 -7 9 -18 19 -8 19 -9 -7 -4 -22 5 -27 3 -23 -9 4 -9 0 -13 -11 -12
-9 2 -23 -4 -30 -13 -8 -9 -11 -10 -7 -3 4 7 0 12 -10 12 -8 0 -22 -15 -31
-33 -8 -18 -26 -37 -38 -43 l-23 -11 23 35 c27 39 31 67 10 59 -9 -4 -16 1
-18 11 -3 12 -9 8 -22 -17 -12 -23 -14 -31 -4 -26 7 4 2 -2 -12 -14 -25 -20
-10 -25 20 -6 13 8 13 7 1 -8 -8 -10 -16 -15 -19 -13 -19 19 -100 -98 -89
-128 9 -24 -18 -41 -66 -43 -26 -1 -55 -4 -63 -7 -16 -6 -19 -26 -3 -26 5 0 7
5 4 10 -3 6 -2 10 3 10 19 0 19 -13 0 -46 -13 -23 -16 -32 -7 -29 8 3 20 -4
27 -15 7 -12 8 -20 2 -20 -5 0 -10 -5 -10 -11 0 -5 5 -7 12 -3 7 4 8 3 4 -5
-6 -9 -11 -9 -21 -1 -9 7 -16 6 -26 -7 -12 -15 -12 -16 4 -10 14 5 16 3 9 -11
-5 -9 -7 -24 -5 -32 4 -12 3 -13 -5 -1 -8 11 -15 10 -41 -8 -24 -17 -30 -28
-27 -51 2 -21 -7 -41 -40 -82 -41 -50 -60 -93 -31 -71 6 6 20 10 29 10 13 0
15 -4 7 -19 -12 -22 -21 -24 -13 -3 4 8 2 15 -4 15 -15 0 -33 -26 -24 -36 4
-5 3 -6 -2 -2 -5 4 -16 2 -25 -4 -10 -8 -8 -3 4 12 l20 25 -22 -19 c-13 -10
-20 -22 -18 -27 3 -4 1 -10 -4 -14 -5 -3 -9 -13 -9 -23 1 -9 -2 -28 -6 -41 -6
-18 -5 -22 5 -16 8 5 11 4 6 -1 -5 -5 -13 -9 -18 -9 -5 0 -10 -4 -10 -10 -1
-5 -10 -16 -20 -23 -11 -7 -19 -20 -19 -28 0 -12 -4 -12 -20 -4 -11 6 -18 16
-14 22 4 6 1 9 -7 6 -8 -3 -13 -10 -12 -16 8 -38 9 -81 1 -76 -5 3 -7 12 -4
20 3 8 1 14 -5 14 -6 0 -8 -14 -6 -32 2 -18 8 -32 13 -31 5 1 7 -17 4 -40 l-5
-42 -3 37 c-2 21 -11 43 -20 50 -11 8 -16 24 -14 43 1 17 5 60 8 98 5 48 3 67
-6 67 -7 0 -9 8 -5 23 4 15 3 18 -3 8 -7 -9 -9 -5 -9 15 0 16 2 23 4 17 6 -18
23 -16 23 2 0 8 10 23 22 35 12 11 18 20 13 20 -4 0 -2 8 6 18 8 10 3 7 -10
-7 -13 -14 -29 -26 -35 -27 -6 0 -17 -2 -25 -2 -10 -2 -12 -19 -7 -79 5 -75 6
-232 3 -378 -2 -63 0 -70 17 -70 11 0 20 -6 22 -13 1 -7 0 -8 -3 -2 -6 12 -23
13 -23 1 0 -12 59 -35 68 -27 4 4 -1 14 -11 21 -18 13 -16 17 16 28 10 4 16 3
12 -2 -3 -5 -1 -12 4 -15 5 -3 12 1 15 10 4 9 9 14 12 11 3 -3 1 -15 -6 -26
-6 -12 -8 -27 -4 -33 4 -7 6 -58 5 -115 -2 -67 1 -103 8 -103 6 0 8 6 5 14 -3
8 0 17 6 21 7 4 10 -12 8 -54 -1 -37 2 -65 10 -73 16 -16 15 -28 -3 -28 -8 0
-15 -5 -15 -11 0 -5 4 -8 9 -4 5 3 12 1 16 -5 3 -5 2 -10 -4 -10 -13 0 -9 -20
14 -57 l19 -33 14 23 c11 18 12 18 7 2 -15 -46 -15 -57 3 -50 13 5 14 4 5 -6
-10 -10 -15 -9 -27 1 -9 7 -14 16 -11 20 3 5 0 12 -7 17 -24 14 -38 11 -38 -8
0 -10 -6 -19 -14 -19 -25 0 -45 29 -52 75 -3 25 -10 45 -14 45 -5 0 -7 35 -4
78 2 42 1 71 -2 65 -8 -19 -54 -16 -54 2 0 9 -12 20 -27 26 -54 20 -104 88
-84 113 6 7 6 17 1 26 -6 8 -10 34 -10 58 0 27 -4 42 -13 42 -18 0 -53 126
-39 143 6 7 13 31 15 52 3 22 2 31 0 20 -7 -31 -24 -48 -36 -36 -7 7 -4 17 8
31 16 18 17 23 5 31 -8 5 -34 6 -57 3 -33 -5 -43 -3 -43 7 -1 8 -15 23 -31 34
-35 23 -67 70 -55 82 4 4 18 -4 31 -19 13 -16 27 -23 30 -18 3 6 4 14 0 19 -3
5 -1 12 4 15 5 3 7 15 4 26 -7 28 4 25 32 -7 20 -23 26 -25 34 -14 8 12 12 13
25 1 9 -7 20 -10 24 -6 4 4 -4 16 -18 26 -21 16 -23 21 -11 32 11 10 14 10 18
1 3 -7 17 -13 32 -13 15 0 32 -5 39 -12 9 -9 12 -8 12 4 0 18 -38 50 -51 43
-4 -3 -9 5 -13 18 -3 13 -33 61 -66 107 -58 80 -74 116 -47 108 6 -3 28 -28
47 -56 34 -50 55 -63 62 -41 3 9 10 8 28 -1 20 -11 29 -10 57 5 18 10 33 25
33 33 0 8 9 30 21 48 19 31 19 34 3 34 -16 0 -16 2 3 23 11 12 18 28 16 35 -3
6 0 12 6 12 21 0 11 20 -14 26 -31 8 -21 27 11 21 33 -6 29 4 -12 31 -36 23
-70 30 -59 12 3 -5 2 -10 -4 -10 -17 0 -25 49 -11 65 7 8 27 17 46 21 19 3 34
10 34 16 0 5 -16 6 -37 2 -31 -6 -35 -4 -30 10 5 13 0 16 -28 16 -19 0 -35 5
-35 11 0 7 18 10 48 9 76 -4 76 -4 53 34 -23 36 -27 56 -11 56 6 0 10 -9 10
-20 0 -17 7 -20 39 -20 22 0 43 -5 46 -10 5 -8 11 -7 20 0 8 7 20 8 27 4 21
-14 35 -13 35 2 0 10 -4 11 -14 3 -9 -8 -13 -8 -13 -1 0 6 5 14 10 17 17 10
11 25 -7 19 -11 -4 -14 -3 -7 3 15 11 39 56 36 67 -2 4 3 14 9 22 9 11 8 14
-6 14 -10 0 -35 -18 -58 -40 -22 -22 -42 -38 -45 -36 -5 5 37 66 65 94 36 37
2 28 -52 -14 -26 -19 -49 -33 -52 -30 -3 3 10 24 29 48 19 24 49 67 68 96 38
62 81 87 160 95 88 8 141 43 94 61 -28 11 -39 6 -20 -9 19 -15 19 -15 -2 -15
-12 0 -22 4 -22 10 0 5 -8 6 -17 3 -16 -6 -16 -5 -4 10 15 18 86 41 100 32 5
-3 19 10 31 29 25 41 98 80 180 97 63 13 84 23 160 74 47 32 60 36 95 31 38
-6 41 -5 63 33 26 47 27 51 6 51 -8 0 -13 4 -10 9 3 5 26 9 51 9 26 1 87 18
147 41 57 21 117 42 133 46 l30 8 -35 9 c-19 5 -46 18 -60 29 l-25 20 32 -15
c18 -9 43 -16 57 -16 14 0 27 -4 30 -9 10 -16 56 -20 56 -5 0 8 5 14 11 14 5
0 7 -4 4 -10 -3 -5 0 -7 8 -4 8 3 18 1 22 -5 3 -6 -2 -11 -12 -12 -37 -2 114
-28 166 -28 57 -1 211 36 211 51 0 8 -15 12 -37 9 -34 -5 14 51 55 64 17 5 21
11 16 31 -3 13 -3 24 1 24 5 0 34 -27 67 -60z m213 -40 c3 -5 1 -10 -4 -10 -6
0 -11 5 -11 10 0 6 2 10 4 10 3 0 8 -4 11 -10z m-218 -652 c-3 -8 -6 -5 -6 6
-1 11 2 17 5 13 3 -3 4 -12 1 -19z m-797 -58 c6 -11 8 -20 6 -20 -3 0 -10 9
-16 20 -6 11 -8 20 -6 20 3 0 10 -9 16 -20z m-32 -55 c-3 -3 -9 2 -12 12 -6
14 -5 15 5 6 7 -7 10 -15 7 -18z m-18 -21 c0 -8 -19 -13 -24 -6 -3 5 1 9 9 9
8 0 15 -2 15 -3z m-217 -39 c-3 -9 -8 -14 -10 -11 -3 3 -2 9 2 15 9 16 15 13
8 -4z m64 -15 c1 -11 -3 -23 -9 -26 -6 -4 -8 -2 -5 4 4 5 4 18 1 27 -6 14 -11
12 -38 -12 -27 -25 -29 -25 -11 -3 35 44 59 48 62 10z m-111 -9 c0 -11 -5 -17
-10 -14 -6 4 -6 -1 -2 -13 5 -14 4 -16 -4 -8 -9 9 -9 17 -1 33 14 26 17 26 17
2z m34 -36 c0 -2 -6 -8 -13 -14 -10 -8 -14 -7 -14 2 0 8 6 14 14 14 7 0 13 -1
13 -2z m-240 -209 c0 -3 -4 -8 -10 -11 -5 -3 -10 -1 -10 4 0 6 5 11 10 11 6 0
10 -2 10 -4z m-68 -31 c0 -5 -5 -10 -11 -11 -8 -2 -7 -1 0 3 8 4 7 8 -2 15
-11 8 -11 9 -1 6 8 -2 14 -8 14 -13z m28 -20 c-6 -8 -9 -18 -6 -23 3 -5 -1 -9
-9 -9 -8 0 -11 5 -8 11 10 19 25 36 30 36 3 0 0 -7 -7 -15z m-29 -78 c-10 -9
-11 -8 -5 6 3 10 9 15 12 12 3 -3 0 -11 -7 -18z m-64 -53 c0 -7 -6 -10 -13 -7
-6 2 -15 0 -19 -6 -3 -6 -1 -11 5 -11 7 0 6 -5 -2 -14 -8 -9 -15 -10 -19 -4
-10 16 -3 43 10 41 6 -2 11 1 11 5 0 5 6 9 13 9 8 0 14 -6 14 -13z m-109 -249
c-3 -3 -9 2 -12 12 -6 14 -5 15 5 6 7 -7 10 -15 7 -18z m-47 -30 c10 -22 13
-38 7 -47 -7 -10 -9 -9 -5 4 3 9 -1 22 -10 30 -14 11 -15 10 -8 -12 4 -14 4
-22 0 -17 -9 8 -14 77 -5 77 3 -1 12 -16 21 -35z m17 0 c-3 -3 -9 2 -12 12 -6
14 -5 15 5 6 7 -7 10 -15 7 -18z m-474 -20 c3 -8 1 -15 -4 -15 -6 0 -10 7 -10
15 0 8 2 15 4 15 2 0 6 -7 10 -15z m264 -10 c-3 -3 -9 2 -12 12 -6 14 -5 15 5
6 7 -7 10 -15 7 -18z m-1 -67 c-3 -8 -6 -5 -6 6 -1 11 2 17 5 13 3 -3 4 -12 1
-19z m160 -90 c-3 -8 -6 -5 -6 6 -1 11 2 17 5 13 3 -3 4 -12 1 -19z m2551 -71
c22 -35 70 -96 107 -136 37 -40 73 -89 81 -108 16 -38 10 -95 -12 -114 -12 -9
-14 -4 -14 30 0 48 -33 121 -55 121 -8 0 -15 4 -15 8 0 4 -26 35 -58 68 -58
60 -132 176 -132 208 0 33 56 -11 98 -77z m-2526 41 c-8 -8 -9 -4 -5 13 4 13
8 18 11 10 2 -7 -1 -18 -6 -23z m-45 -40 c-3 -8 -6 -5 -6 6 -1 11 2 17 5 13 3
-3 4 -12 1 -19z m20 -20 c-3 -8 -6 -5 -6 6 -1 11 2 17 5 13 3 -3 4 -12 1 -19z
m63 -4 c0 -2 -7 -4 -15 -4 -8 0 -15 4 -15 10 0 5 7 7 15 4 8 -4 15 -8 15 -10z
m-233 -76 c-2 -13 -4 -3 -4 22 0 25 2 35 4 23 2 -13 2 -33 0 -45z m90 15 c-3
-10 -5 -4 -5 12 0 17 2 24 5 18 2 -7 2 -21 0 -30z m-37 -23 c0 -11 -4 -20 -9
-20 -5 0 -7 9 -4 20 3 11 7 20 9 20 2 0 4 -9 4 -20z m56 -28 c-4 -3 -12 0 -19
8 -9 10 -9 11 1 6 7 -5 12 -1 13 11 1 17 2 17 6 0 3 -10 2 -21 -1 -25z m164
34 c0 -2 -7 -6 -15 -10 -8 -3 -15 -1 -15 4 0 6 7 10 15 10 8 0 15 -2 15 -4z
m-130 -16 c0 -5 -5 -10 -11 -10 -5 0 -7 5 -4 10 3 6 8 10 11 10 2 0 4 -4 4
-10z m124 -15 c-4 -8 -11 -12 -16 -9 -6 4 -5 10 3 15 19 12 19 11 13 -6z
m-138 -63 c-17 -16 -18 -16 -5 5 7 12 15 20 18 17 3 -2 -3 -12 -13 -22z m132
-17 c-10 -22 -28 -35 -28 -20 0 5 33 45 37 45 1 0 -3 -11 -9 -25z m24 -51 c-6
-12 -9 -7 -9 16 0 23 3 28 9 16 5 -9 5 -23 0 -32z m114 -159 c34 -36 47 -55
38 -55 -5 0 -20 16 -33 35 -23 34 -25 35 -42 19 -11 -10 -19 -12 -19 -6 0 7 5
12 10 12 16 0 12 20 -10 47 -11 14 -20 30 -20 36 0 5 13 -8 29 -29 16 -21 37
-48 47 -59z m-256 55 c0 -5 -4 -10 -10 -10 -5 0 -10 5 -10 10 0 6 5 10 10 10
6 0 10 -4 10 -10z m184 -15 c9 -14 13 -25 8 -25 -5 0 -14 11 -20 25 -6 14 -10
25 -8 25 2 0 11 -11 20 -25z m2466 -69 c0 -7 9 -34 20 -59 11 -25 23 -66 27
-92 5 -42 4 -47 -13 -43 -13 2 -26 27 -46 92 -16 49 -27 95 -24 103 7 17 36
17 36 -1z m-2319 -48 c11 -21 11 -22 -4 -9 -10 7 -17 17 -17 22 0 15 9 10 21
-13z m32 -42 c4 -10 1 -13 -9 -9 -15 6 -19 23 -5 23 5 0 11 -7 14 -14z m-31
-48 c-8 -8 -9 -4 -5 13 4 13 8 18 11 10 2 -7 -1 -18 -6 -23z m-268 -5 c4 -10
4 -14 0 -10 -4 4 -13 2 -20 -4 -8 -7 -14 -7 -19 1 -4 6 -1 9 7 8 7 -2 12 3 11
10 -4 18 14 14 21 -5z m301 -13 c-3 -5 -18 -9 -33 -9 l-27 1 30 8 c17 4 31 8
33 9 2 0 0 -3 -3 -9z m-47 -45 c-6 -14 -13 -23 -15 -21 -5 5 15 46 22 46 3 0
-1 -11 -7 -25z m68 10 c18 -14 18 -15 0 -9 -15 6 -17 3 -12 -12 3 -10 1 -26
-4 -34 -6 -9 -10 -11 -10 -3 0 7 -7 10 -17 7 -11 -4 -14 -2 -8 3 17 14 36 53
26 53 -6 0 -15 -8 -20 -17 -12 -20 -14 -13 -5 11 8 20 25 20 50 1z m-116 -25
c-11 -11 -20 -25 -20 -32 0 -6 -2 -9 -5 -6 -10 10 15 58 30 58 12 0 11 -4 -5
-20z m154 -6 c3 -8 2 -12 -4 -9 -6 3 -10 10 -10 16 0 14 7 11 14 -7z m-119
-56 c22 -23 24 -28 9 -20 -12 6 -25 8 -29 4 -5 -4 -5 -1 -1 6 4 7 2 19 -4 27
-22 27 -5 16 25 -17z m110 12 c10 -11 15 -20 12 -20 -4 0 -16 9 -27 20 -11 11
-16 20 -12 20 5 0 17 -9 27 -20z m-20 -18 c-3 -3 -11 0 -18 7 -9 10 -8 11 6 5
10 -3 15 -9 12 -12z m2251 0 c15 -10 34 -47 34 -67 0 -28 -27 -27 -61 4 -32
30 -32 31 -14 51 20 22 25 23 41 12z m-2551 -42 c3 -5 1 -10 -4 -10 -6 0 -11
5 -11 10 0 6 2 10 4 10 3 0 8 -4 11 -10z m121 -12 c0 -12 -8 -23 -16 -25 -12
-4 -12 -2 -2 5 7 5 12 13 11 18 -2 12 0 24 5 24 2 0 3 -10 2 -22z m124 12 c0
-5 -2 -10 -4 -10 -3 0 -8 5 -11 10 -3 6 -1 10 4 10 6 0 11 -4 11 -10z m-220
-89 c12 -24 19 -46 16 -49 -3 -3 -6 0 -6 8 0 10 -3 10 -17 -1 -15 -13 -15 -12
-5 6 7 14 7 26 1 38 -17 29 -31 19 -27 -18 3 -24 0 -35 -9 -35 -11 0 -11 -4
-1 -20 9 -15 24 -20 53 -20 57 0 90 10 73 22 -8 6 3 7 31 2 34 -5 42 -3 36 6
-5 8 -4 11 3 6 13 -8 6 -33 -16 -58 -11 -13 -12 -18 -3 -18 23 0 56 35 55 58
-2 32 9 18 12 -17 2 -16 -3 -48 -11 -71 -17 -48 -19 -72 -5 -50 14 22 13 -5
-1 -32 -14 -27 2 -38 57 -38 39 0 41 -2 36 -25 -4 -26 11 -34 24 -13 4 6 14
-7 24 -33 31 -79 33 -89 16 -89 -26 0 -18 -17 13 -30 18 -7 32 -22 36 -37 5
-20 11 -24 30 -20 17 3 25 0 25 -9 0 -7 -6 -11 -14 -8 -8 3 -17 1 -21 -5 -3
-7 0 -8 9 -5 22 8 32 -22 15 -43 -8 -9 -9 -14 -3 -10 7 4 17 1 23 -6 8 -10 6
-24 -9 -55 -22 -45 -26 -67 -10 -57 6 3 7 -1 4 -10 -4 -8 -1 -22 6 -30 7 -8 9
-15 6 -15 -4 0 -2 -9 4 -19 8 -16 5 -25 -15 -47 -16 -18 -25 -39 -25 -60 0
-27 -4 -34 -19 -34 -11 0 -23 -4 -26 -10 -12 -19 -26 -11 -15 9 14 28 13 31
-15 31 -14 0 -25 4 -25 9 0 13 -134 1 -234 -21 -137 -29 -239 -35 -271 -14
-32 21 -33 59 -2 81 17 12 19 17 9 24 -9 5 7 15 48 30 70 26 160 107 201 180
25 46 49 64 49 37 0 -19 20 -22 21 -3 0 6 2 19 3 27 2 8 6 52 10 98 7 77 6 82
-12 82 -12 0 -22 9 -26 23 l-7 22 -11 -25 c-9 -21 -12 -22 -15 -7 -3 12 -11
15 -27 11 -17 -4 -25 1 -34 20 -9 21 -19 26 -47 26 l-36 0 6 44 c6 40 5 46
-16 57 -13 7 -36 15 -51 18 l-26 6 23 55 c16 35 24 75 25 110 0 43 5 59 23 76
20 19 24 20 44 5 12 -9 32 -36 43 -60z m30 69 c0 -5 -2 -10 -4 -10 -3 0 -8 5
-11 10 -3 6 -1 10 4 10 6 0 11 -4 11 -10z m87 -23 c0 -8 -6 -14 -14 -14 -9 0
-10 4 -2 14 6 7 12 13 14 13 1 0 2 -6 2 -13z m174 -12 c7 0 14 -7 16 -15 4
-12 3 -12 -5 -2 -5 8 -11 13 -13 12 -12 -4 -38 14 -33 22 4 6 10 5 15 -3 4 -8
14 -14 20 -14z m19 -50 c0 -8 -4 -15 -10 -15 -5 0 -7 7 -4 15 4 8 8 15 10 15
2 0 4 -7 4 -15z m2177 -24 c-4 -17 5 -73 19 -133 24 -97 27 -163 7 -177 -5 -3
-16 -18 -26 -33 -10 -16 -22 -28 -27 -28 -12 0 -2 52 12 61 11 7 -12 159 -24
159 -5 0 -7 9 -3 19 4 13 -1 24 -15 34 -17 12 -19 18 -10 42 12 32 51 84 64
84 5 1 6 -12 3 -28z m-2087 -101 c19 -19 49 -45 65 -58 l30 -23 -35 22 c-19
12 -49 35 -66 52 -30 27 -33 28 -43 10 -6 -10 -11 -13 -11 -7 0 5 5 15 12 22
9 9 7 17 -9 34 -11 13 -23 30 -28 38 -4 8 6 -1 21 -20 16 -19 44 -51 64 -70z
m-355 80 c-3 -5 -1 -10 6 -10 7 0 10 -2 7 -5 -3 -3 -13 -2 -22 1 -14 5 -15 9
-4 15 17 11 20 11 13 -1z m269 -30 c-3 -2 -9 2 -14 10 -8 13 -10 13 -10 1 0
-8 -2 -12 -5 -9 -3 3 -3 13 1 22 6 15 7 15 19 -1 8 -10 11 -20 9 -23z m-23
-33 c-10 -9 -11 -8 -5 6 3 10 9 15 12 12 3 -3 0 -11 -7 -18z m49 13 c0 -5 -4
-10 -8 -10 -12 0 -11 -34 2 -42 6 -4 7 -11 2 -15 -5 -4 -11 -2 -13 5 -4 10 -8
10 -21 0 -14 -12 -14 -10 -1 12 13 25 15 31 18 50 0 6 6 10 11 10 6 0 10 -4
10 -10z m54 -65 c11 -8 15 -15 9 -15 -7 0 -15 5 -18 10 -11 17 -28 11 -20 -7
5 -14 3 -15 -6 -6 -11 11 -5 33 9 33 4 0 16 -7 26 -15z m1463 -11 c-3 -3 -12
-4 -19 -1 -8 3 -5 6 6 6 11 1 17 -2 13 -5z m60 -11 c-4 -3 3 -11 16 -17 29
-15 37 -95 12 -116 -15 -12 -19 -11 -36 10 -10 14 -19 21 -19 15 0 -5 -5 -2
-11 8 -8 14 -14 16 -25 6 -7 -6 -11 -15 -8 -20 3 -5 3 -9 0 -9 -3 0 -10 8 -15
19 -9 15 -7 18 7 17 12 -1 16 6 15 22 -3 22 21 54 48 65 20 8 23 8 16 0z
m-1628 -29 c-6 -8 -17 -14 -23 -14 -6 0 -3 5 7 11 9 6 14 15 11 21 -4 7 -2 8
5 4 9 -6 9 -11 0 -22z m1571 17 c0 -6 -9 -9 -19 -8 -11 0 -17 5 -15 9 7 11 34
10 34 -1z m-1385 -21 c3 -5 1 -10 -4 -10 -6 0 -11 5 -11 10 0 6 2 10 4 10 3 0
8 -4 11 -10z m1336 -33 c-10 -9 -11 -8 -5 6 3 10 9 15 12 12 3 -3 0 -11 -7
-18z m-1604 7 c-3 -3 -12 -4 -19 -1 -8 3 -5 6 6 6 11 1 17 -2 13 -5z m1454
-67 c-10 -9 -11 -8 -5 6 3 10 9 15 12 12 3 -3 0 -11 -7 -18z m-1254 -47 c2 -2
8 2 13 10 6 9 10 10 10 3 0 -16 -20 -27 -30 -17 -5 5 -11 23 -14 39 l-6 30 11
-30 c7 -16 14 -32 16 -35z m1420 44 c-3 -3 -12 -4 -19 -1 -8 3 -5 6 6 6 11 1
17 -2 13 -5z m-192 -33 c-3 -12 -10 -21 -15 -21 -4 0 -3 11 3 24 14 29 22 27
12 -3z m190 9 c-3 -5 -12 -10 -18 -10 -7 0 -6 4 3 10 19 12 23 12 15 0z
m-1298 -52 c-3 -7 -5 -2 -5 12 0 14 2 19 5 13 2 -7 2 -19 0 -25z m-67 -2 c0
-26 -20 -30 -42 -8 -8 8 -5 9 11 5 15 -4 21 -1 21 11 0 9 2 16 5 16 3 0 5 -11
5 -24z m40 -1 c11 -13 10 -14 -4 -9 -9 3 -16 10 -16 15 0 13 6 11 20 -6z
m1150 -6 c0 -6 -4 -7 -10 -4 -5 3 -10 11 -10 16 0 6 5 7 10 4 6 -3 10 -11 10
-16z m60 1 c-24 -19 -40 -25 -40 -15 0 5 51 34 60 34 3 0 -6 -8 -20 -19z
m-117 -25 c4 -8 3 -16 -1 -19 -4 -3 -9 4 -9 15 -2 23 3 25 10 4z m40 -20 c-3
-9 -8 -14 -10 -11 -3 3 -2 9 2 15 9 16 15 13 8 -4z m25 -5 c-7 -10 -14 -18
-15 -16 -6 6 9 36 18 36 5 0 4 -9 -3 -20z m-553 -10 c-13 -15 -22 -17 -36 -9
-22 11 -25 21 -5 13 8 -3 23 -1 33 5 26 15 28 13 8 -9z m204 -26 c147 -75 214
-169 144 -202 -18 -8 -30 -9 -37 -2 -5 5 -18 10 -28 10 -10 0 -45 13 -77 29
-33 16 -63 26 -66 22 -4 -3 -5 -1 -3 6 4 14 -78 93 -97 93 -8 0 -17 9 -20 21
-5 16 -10 18 -21 8 -24 -20 -15 4 13 33 40 42 83 38 192 -18z m246 -1 c-9 -9
-13 -23 -10 -32 5 -12 3 -13 -5 -5 -13 13 7 67 22 58 4 -3 1 -12 -7 -21z m42
5 c-3 -8 -6 -5 -6 6 -1 11 2 17 5 13 3 -3 4 -12 1 -19z m-1141 -10 c3 -11 3
-22 0 -25 -3 -4 -6 1 -6 10 0 18 -20 19 -32 2 -5 -6 -8 -3 -8 7 0 9 -6 18 -12
21 -7 2 2 4 19 4 23 0 34 -6 39 -19z m550 -3 c-1 -8 -6 -18 -11 -22 -4 -5 -5
-2 0 6 6 11 4 13 -11 8 -18 -7 -18 -7 0 8 24 18 25 18 22 0z m611 -27 c-3 -8
-6 -5 -6 6 -1 11 2 17 5 13 3 -3 4 -12 1 -19z m-51 -24 c-4 -9 -9 -15 -11 -12
-3 3 -3 13 1 22 4 9 9 15 11 12 3 -3 3 -13 -1 -22z m-1018 2 c-7 -8 -15 -12
-17 -11 -5 6 10 25 20 25 5 0 4 -6 -3 -14z m42 -6 c6 -11 8 -20 6 -20 -3 0
-10 9 -16 20 -6 11 -8 20 -6 20 3 0 10 -9 16 -20z m88 -64 c11 0 19 -3 16 -8
-8 -12 -34 -10 -47 5 -18 20 -37 55 -37 69 0 7 11 -5 23 -27 16 -28 30 -40 45
-39z m-98 30 c0 -6 -5 -4 -10 4 -9 13 -11 13 -19 0 -7 -9 -6 -17 0 -21 10 -6
-2 -19 -31 -33 -8 -4 -7 -1 4 8 10 8 15 19 12 25 -4 6 -1 19 6 30 9 15 15 17
25 9 7 -6 13 -16 13 -22z m548 16 c2 -7 -1 -12 -7 -12 -6 0 -11 4 -11 10 0 5
-8 7 -17 4 -15 -5 -16 -4 -3 5 17 12 32 10 38 -7z m425 -21 c3 -13 -1 -21 -13
-24 -14 -4 -15 -1 -6 19 13 29 12 29 19 5z m-433 -1 c18 -12 2 -12 -25 0 -13
6 -15 9 -5 9 8 0 22 -4 30 -9z m464 -15 c-4 -8 -8 -15 -10 -15 -2 0 -4 7 -4
15 0 8 4 15 10 15 5 0 7 -7 4 -15z m23 -7 c-3 -8 -6 -5 -6 6 -1 11 2 17 5 13
3 -3 4 -12 1 -19z m-983 -14 c5 -14 4 -15 -9 -4 -17 14 -19 20 -6 20 5 0 12
-7 15 -16z m-34 2 c0 -3 -4 -8 -10 -11 -5 -3 -10 -1 -10 4 0 6 5 11 10 11 6 0
10 -2 10 -4z m246 -8 c4 -7 3 -8 -5 -4 -6 4 -18 2 -26 -4 -9 -8 -15 -8 -15 -2
0 9 15 19 32 21 4 1 10 -4 14 -11z m732 -13 c-3 -3 -9 2 -12 12 -6 14 -5 15 5
6 7 -7 10 -15 7 -18z m-18 -20 c0 -5 -5 -3 -10 5 -5 8 -10 20 -10 25 0 6 5 3
10 -5 5 -8 10 -19 10 -25z m67 13 c-3 -8 -6 -5 -6 6 -1 11 2 17 5 13 3 -3 4
-12 1 -19z m-1137 8 c0 -2 -7 -7 -16 -10 -8 -3 -12 -2 -9 4 6 10 25 14 25 6z
m180 -16 c-24 -15 -36 -11 -14 4 10 8 21 12 24 10 2 -3 -2 -9 -10 -14z m635
-21 c11 -13 13 -18 4 -11 -9 6 -19 8 -23 4 -4 -4 -6 -2 -4 5 2 6 -6 19 -17 28
-20 16 -20 16 0 6 11 -5 29 -20 40 -32z m-785 27 c0 -2 -7 -9 -15 -16 -13 -11
-14 -10 -9 4 5 14 24 23 24 12z m237 -11 c0 -8 -4 -12 -9 -9 -5 3 -6 10 -3 15
9 13 12 11 12 -6z m86 1 c4 -10 1 -13 -9 -9 -7 3 -14 9 -14 14 0 14 17 10 23
-5z m1157 -5 c0 -25 -53 -202 -97 -325 -32 -90 -34 -100 -18 -109 20 -11 45
-67 45 -102 0 -14 6 -25 13 -25 60 0 137 -50 137 -89 0 -26 -26 -51 -55 -51
-24 0 -120 45 -143 67 -7 7 -21 13 -31 13 -12 0 -22 13 -29 38 -13 42 -118
152 -146 152 -20 0 -21 29 -2 55 11 15 21 17 66 12 30 -4 57 -11 60 -18 5 -6
9 -3 13 10 3 12 12 21 21 21 9 0 16 6 16 13 0 7 16 45 35 86 19 40 35 84 35
98 0 13 7 31 15 39 8 8 22 41 31 74 16 58 34 80 34 41z m-400 -1 c0 -5 -5 -10
-11 -10 -5 0 -7 5 -4 10 3 6 8 10 11 10 2 0 4 -4 4 -10z m-557 -23 c18 11 36
12 42 3 3 -5 -3 -7 -12 -6 -10 2 -21 -1 -24 -6 -8 -13 -40 2 -32 15 5 8 8 7
11 -1 2 -7 9 -9 15 -5z m163 -15 c-4 -3 -14 2 -24 12 -16 18 -16 18 6 6 13 -6
21 -14 18 -18z m144 -16 c8 -4 -1 -4 -20 -1 -19 3 -39 10 -44 15 -10 10 19 3
64 -14z m140 20 c0 -2 -7 -7 -16 -10 -8 -3 -12 -2 -9 4 6 10 25 14 25 6z
m-466 -36 c-6 -6 -10 -3 -10 10 0 13 4 16 10 10 7 -7 7 -13 0 -20z m42 15 c-3
-8 -1 -15 5 -15 6 0 7 -5 3 -11 -4 -8 -9 -7 -14 2 -8 12 -3 39 7 39 3 0 3 -7
-1 -15z m229 -7 c14 -6 25 -15 25 -19 0 -4 -13 -1 -30 7 -45 23 -41 33 5 12z
m255 8 c0 -3 -4 -8 -10 -11 -5 -3 -10 -1 -10 4 0 6 5 11 10 11 6 0 10 -2 10
-4z m-290 -37 c24 -11 53 -27 62 -36 27 -24 33 -78 14 -108 -26 -39 -62 -33
-138 26 -36 27 -74 51 -84 51 -15 2 -20 11 -22 45 l-3 43 63 0 c42 0 78 -7
108 -21z m103 14 c-7 -2 -19 -2 -25 0 -7 3 -2 5 12 5 14 0 19 -2 13 -5z m47
-13 c0 -5 -7 -7 -15 -4 -8 4 -15 8 -15 10 0 2 7 4 15 4 8 0 15 -4 15 -10z
m120 6 c0 -3 -4 -8 -10 -11 -5 -3 -10 -1 -10 4 0 6 5 11 10 11 6 0 10 -2 10
-4z m-980 -10 c0 -2 -7 -6 -15 -10 -8 -3 -15 -1 -15 4 0 6 7 10 15 10 8 0 15
-2 15 -4z m110 -6 c18 -12 2 -12 -25 0 -13 6 -15 9 -5 9 8 0 22 -4 30 -9z
m100 0 c0 -5 -2 -10 -4 -10 -3 0 -8 5 -11 10 -3 6 -1 10 4 10 6 0 11 -4 11
-10z m600 -5 c-6 -8 -8 -20 -4 -27 5 -10 4 -10 -6 -1 -11 10 -11 15 0 28 7 8
15 15 17 15 3 0 0 -7 -7 -15z m-860 -20 c-7 -9 -15 -13 -19 -10 -3 3 1 10 9
15 21 14 24 12 10 -5z m205 5 c3 -5 2 -10 -4 -10 -5 0 -13 5 -16 10 -3 6 -2
10 4 10 5 0 13 -4 16 -10z m700 -24 c0 -31 -13 -45 -25 -26 -6 10 -4 21 7 32
20 22 19 23 18 -6z m35 4 c0 -5 -4 -10 -10 -10 -5 0 -10 5 -10 10 0 6 5 10 10
10 6 0 10 -4 10 -10z m-717 -19 c2 -10 1 -25 -4 -32 -6 -10 -9 -4 -9 19 0 36
5 42 13 13z m24 -28 c-3 -10 -5 -4 -5 12 0 17 2 24 5 18 2 -7 2 -21 0 -30z
m270 11 c-3 -3 -12 -4 -19 -1 -8 3 -5 6 6 6 11 1 17 -2 13 -5z m38 -4 c-3 -5
-12 -10 -18 -10 -7 0 -6 4 3 10 19 12 23 12 15 0z m372 -37 c-3 -10 -5 -2 -5
17 0 19 2 27 5 18 2 -10 2 -26 0 -35z m-34 2 c-3 -9 -8 -14 -10 -11 -3 3 -2 9
2 15 9 16 15 13 8 -4z m-408 -5 c-3 -5 -11 -10 -16 -10 -6 0 -7 5 -4 10 3 6
11 10 16 10 6 0 7 -4 4 -10z m-230 -47 c-9 -15 -13 -19 -10 -8 4 11 10 29 13
40 3 11 7 14 9 8 3 -7 -3 -24 -12 -40z m641 19 c-17 -16 -18 -16 -5 5 7 12 15
20 18 17 3 -2 -3 -12 -13 -22z m-675 -23 c-5 -13 -10 -19 -10 -12 -1 15 10 45
15 40 3 -2 0 -15 -5 -28z m49 -114 c0 -5 -5 -3 -10 5 -5 8 -10 20 -10 25 0 6
5 3 10 -5 5 -8 10 -19 10 -25z m120 20 c0 -8 -2 -15 -4 -15 -2 0 -6 7 -10 15
-3 8 -1 15 4 15 6 0 10 -7 10 -15z m3 -55 c-3 -12 -8 -19 -11 -16 -5 6 5 36
12 36 2 0 2 -9 -1 -20z m0 -90 c-3 -12 -8 -19 -11 -16 -5 6 5 36 12 36 2 0 2
-9 -1 -20z m-136 -42 c-3 -8 -6 -5 -6 6 -1 11 2 17 5 13 3 -3 4 -12 1 -19z
m80 -40 c-3 -8 -6 -5 -6 6 -1 11 2 17 5 13 3 -3 4 -12 1 -19z m-87 -53 c0 -5
-5 -3 -10 5 -5 8 -10 20 -10 25 0 6 5 3 10 -5 5 -8 10 -19 10 -25z m82 10 c3
-13 1 -22 -3 -19 -9 5 -13 44 -5 44 2 0 6 -11 8 -25z m-118 -1 c3 -8 2 -13 -3
-9 -5 3 -11 -1 -14 -7 -2 -7 -8 -10 -12 -6 -4 4 -1 14 6 22 17 19 16 19 23 0z
m-594 -8 c0 -2 -8 -10 -17 -17 -16 -13 -17 -12 -4 4 13 16 21 21 21 13z m607
-32 c-3 -3 -12 -4 -19 -1 -8 3 -5 6 6 6 11 1 17 -2 13 -5z m38 -34 c-11 -5
-29 -8 -40 -8 -16 0 -15 2 5 8 34 11 60 11 35 0z m-78 -82 c-3 -8 -6 -5 -6 6
-1 11 2 17 5 13 3 -3 4 -12 1 -19z m20 -50 c-3 -7 -5 -2 -5 12 0 14 2 19 5 13
2 -7 2 -19 0 -25z m31 12 c-7 -10 -14 -18 -15 -16 -6 6 9 36 18 36 5 0 4 -9
-3 -20z m9 -52 c-3 -8 -6 -5 -6 6 -1 11 2 17 5 13 3 -3 4 -12 1 -19z"/>
<path d="M2301 4381 c-34 -9 -39 -31 -7 -31 17 0 26 6 26 15 0 13 7 12 41 -5
47 -25 65 -18 29 10 -26 20 -48 23 -89 11z"/>
<path d="M2530 4312 c0 -10 33 -42 43 -42 4 0 1 11 -5 25 -10 23 -38 35 -38
17z"/>
<path d="M1740 4263 c-14 -3 -29 -9 -35 -15 -7 -7 1 -8 25 -3 40 8 76 25 50
23 -8 0 -26 -3 -40 -5z"/>
<path d="M1808 4223 c7 -3 16 -2 19 1 4 3 -2 6 -13 5 -11 0 -14 -3 -6 -6z"/>
<path d="M1618 4203 c7 -3 16 -2 19 1 4 3 -2 6 -13 5 -11 0 -14 -3 -6 -6z"/>
<path d="M2610 4206 c0 -2 8 -10 18 -17 15 -13 16 -12 3 4 -13 16 -21 21 -21
13z"/>
<path d="M2440 4171 c0 -5 5 -13 10 -16 6 -3 10 -2 10 4 0 5 -4 13 -10 16 -5
3 -10 2 -10 -4z"/>
<path d="M2265 4138 c4 -13 13 -43 20 -68 12 -38 14 -41 14 -16 1 37 -19 106
-32 106 -5 0 -6 -10 -2 -22z"/>
<path d="M2940 4143 c0 -17 19 -35 29 -29 8 5 7 11 -3 22 -16 15 -26 18 -26 7z"/>
<path d="M1545 4130 c-17 -7 -17 -9 -2 -9 9 -1 20 -1 24 -2 4 0 9 4 11 10 4
13 -5 13 -33 1z"/>
<path d="M2450 4095 c0 -18 19 -40 26 -32 4 4 0 15 -9 24 -9 10 -17 13 -17 8z"/>
<path d="M1360 4070 c-20 -6 -21 -8 -5 -8 11 0 29 3 40 8 25 11 -1 11 -35 0z"/>
<path d="M1725 4060 c3 -5 8 -10 11 -10 2 0 4 5 4 10 0 6 -5 10 -11 10 -5 0
-7 -4 -4 -10z"/>
<path d="M3110 3973 c0 -41 3 -54 10 -43 13 20 13 100 0 100 -6 0 -10 -26 -10
-57z"/>
<path d="M3064 4009 c-3 -6 -1 -16 5 -22 8 -8 11 -5 11 11 0 24 -5 28 -16 11z"/>
<path d="M2351 3934 c0 -11 3 -14 6 -6 3 7 2 16 -1 19 -3 4 -6 -2 -5 -13z"/>
<path d="M3198 3853 c7 -3 16 -2 19 1 4 3 -2 6 -13 5 -11 0 -14 -3 -6 -6z"/>
<path d="M758 3758 c-47 -17 -31 -28 17 -11 25 8 45 17 45 19 0 7 -34 3 -62
-8z"/>
<path d="M812 3731 c-11 -6 -9 -9 7 -14 12 -3 22 1 25 9 6 16 -12 18 -32 5z"/>
<path d="M686 3679 c-46 -36 -16 -45 48 -14 31 15 56 29 56 31 0 2 -17 4 -39
4 -24 0 -48 -8 -65 -21z"/>
<path d="M723 3627 c-25 -11 -30 -31 -12 -43 15 -9 56 33 44 45 -6 5 -19 5
-32 -2z"/>
<path d="M766 3545 c-14 -13 -26 -30 -26 -37 0 -8 3 -9 8 -3 4 6 19 18 35 28
15 10 27 22 27 27 0 17 -16 11 -44 -15z"/>
<path d="M705 3459 c-11 -17 1 -21 15 -4 8 9 8 15 2 15 -6 0 -14 -5 -17 -11z"/>
<path d="M2890 3410 c0 -11 5 -20 10 -20 6 0 10 9 10 20 0 11 -4 20 -10 20 -5
0 -10 -9 -10 -20z"/>
<path d="M625 3270 c-18 -8 -17 -9 8 -9 15 -1 27 4 27 9 0 12 -8 12 -35 0z"/>
<path d="M723 3039 c-43 -40 -42 -47 2 -13 19 14 35 30 35 35 0 13 -2 12 -37
-22z"/>
<path d="M384 2901 c11 -11 30 -21 44 -21 31 0 27 5 -24 26 l-39 16 19 -21z"/>
<path d="M432 2861 l-24 -6 26 -24 c29 -27 33 -26 38 8 3 27 -6 32 -40 22z"/>
<path d="M636 2745 c-3 -9 0 -15 9 -15 8 0 15 7 15 15 0 8 -4 15 -9 15 -5 0
-11 -7 -15 -15z"/>
<path d="M534 2278 c3 -13 6 -26 6 -30 0 -5 5 -8 10 -8 6 0 10 14 10 30 0 21
-5 30 -16 30 -12 0 -15 -6 -10 -22z"/>
<path d="M550 2210 c0 -19 3 -21 12 -12 9 9 9 15 0 24 -9 9 -12 7 -12 -12z"/>
<path d="M585 2200 c-3 -5 -3 -15 1 -21 6 -11 23 6 24 24 0 10 -18 9 -25 -3z"/>
<path d="M2215 830 c3 -5 8 -10 11 -10 2 0 4 5 4 10 0 6 -5 10 -11 10 -5 0 -7
-4 -4 -10z"/>
<path d="M58 2993 c7 -3 16 -2 19 1 4 3 -2 6 -13 5 -11 0 -14 -3 -6 -6z"/>
<path d="M260 2950 c0 -5 5 -10 11 -10 5 0 7 5 4 10 -3 6 -8 10 -11 10 -2 0
-4 -4 -4 -10z"/>
<path d="M240 2900 c0 -5 5 -10 11 -10 5 0 7 5 4 10 -3 6 -8 10 -11 10 -2 0
-4 -4 -4 -10z"/>
<path d="M169 2892 c11 -8 10 -11 -5 -15 -18 -4 -18 -5 1 -5 11 0 31 4 45 8
23 7 23 8 3 9 -12 1 -30 4 -40 7 -14 5 -15 4 -4 -4z"/>
<path d="M3964 92 c5 -9 -3 -11 -31 -7 l-38 6 50 -29 c50 -28 75 -34 40 -8
-10 7 -15 18 -11 24 3 6 1 14 -5 18 -8 4 -9 3 -5 -4z"/>
<path d="M4010 31 c0 -6 4 -13 10 -16 6 -3 7 1 4 9 -7 18 -14 21 -14 7z"/>
</g>
</svg>
